# Blender 3.2.2
# www.blender.org
mtllib Spreader.mtl
o Cone
v 0.000000 -0.187175 -1.512060
v 1.067364 -0.187175 -1.069188
v 1.509481 -0.187175 0.000000
v 1.067364 -0.187175 1.069188
v -0.000000 -0.187175 1.512060
v -1.067364 -0.187175 1.069188
v -1.509481 -0.187175 -0.000000
v -1.067365 -0.187175 -1.069187
v 0.000000 0.587175 0.000000
vn 0.1858 0.8746 -0.4479
vn 0.4485 0.8743 -0.1855
vn 0.4485 0.8743 0.1855
vn 0.1858 0.8746 0.4479
vn -0.1858 0.8746 0.4479
vn -0.4485 0.8743 0.1855
vn -0.0000 -1.0000 -0.0000
vn -0.4485 0.8743 -0.1855
vn -0.1858 0.8746 -0.4479
vt 0.750000 0.490000
vt 0.250000 0.490000
vt 0.419706 0.419706
vt 0.919706 0.419706
vt 0.490000 0.250000
vt 0.990000 0.250000
vt 0.419706 0.080294
vt 0.919706 0.080294
vt 0.250000 0.010000
vt 0.750000 0.010000
vt 0.080294 0.080294
vt 0.580294 0.080294
vt 0.510000 0.250000
vt 0.010000 0.250000
vt 0.580294 0.419706
vt 0.080294 0.419706
vt 0.250000 0.250000
s 0
usemtl Material.006
f 2/3/2 9/17/2 3/5/2
f 4/7/4 9/17/4 5/9/4
f 6/11/6 9/17/6 7/14/6
f 1/1/7 2/4/7 3/6/7 4/8/7 5/10/7 6/12/7 7/13/7 8/15/7
f 8/16/9 9/17/9 1/2/9
usemtl Material.007
f 1/2/1 9/17/1 2/3/1
f 3/5/3 9/17/3 4/7/3
f 5/9/5 9/17/5 6/11/5
f 7/14/8 9/17/8 8/16/8
